<svg width="292" height="53" viewBox="0 0 292 53" fill="none" xmlns="http://www.w3.org/2000/svg">
<path d="M0.73 8.2H9.125V52H17.155V8.2H25.55V0.899997H0.73V8.2ZM34.0437 12.653C34.0437 9.003 35.6497 7.616 38.2047 7.616C40.7597 7.616 42.3657 9.003 42.3657 12.653V40.247C42.3657 43.897 40.7597 45.284 38.2047 45.284C35.6497 45.284 34.0437 43.897 34.0437 40.247V12.653ZM26.0137 39.736C26.0137 47.912 30.3207 52.584 38.2047 52.584C46.0887 52.584 50.3957 47.912 50.3957 39.736V13.164C50.3957 4.988 46.0887 0.316 38.2047 0.316C30.3207 0.316 26.0137 4.988 26.0137 13.164V39.736ZM61.839 52H74.541C82.571 52 86.513 47.547 86.513 39.371V13.529C86.513 5.353 82.571 0.899997 74.541 0.899997H61.839V52ZM74.395 8.2C76.95 8.2 78.483 9.514 78.483 13.164V39.736C78.483 43.386 76.95 44.7 74.395 44.7H69.869V8.2H74.395ZM96.4558 12.653C96.4558 9.003 98.0618 7.616 100.617 7.616C103.172 7.616 104.778 9.003 104.778 12.653V40.247C104.778 43.897 103.172 45.284 100.617 45.284C98.0618 45.284 96.4558 43.897 96.4558 40.247V12.653ZM88.4258 39.736C88.4258 47.912 92.7328 52.584 100.617 52.584C108.501 52.584 112.808 47.912 112.808 39.736V13.164C112.808 4.988 108.501 0.316 100.617 0.316C92.7328 0.316 88.4258 4.988 88.4258 13.164V39.736ZM124.251 52H145.494V44.7H132.281V0.899997H124.251V52ZM146.576 52H154.606V0.899997H146.576V52ZM156.9 13.164C156.9 27.764 172.595 29.735 172.595 40.247C172.595 43.897 170.989 45.211 168.434 45.211C165.879 45.211 164.273 43.897 164.273 40.247V36.232H156.681V39.736C156.681 47.912 160.769 52.584 168.653 52.584C176.537 52.584 180.625 47.912 180.625 39.736C180.625 25.136 164.93 23.165 164.93 12.653C164.93 9.003 166.39 7.616 168.945 7.616C171.5 7.616 172.96 9.003 172.96 12.653V15.135H180.552V13.164C180.552 4.988 176.537 0.316 168.726 0.316C160.915 0.316 156.9 4.988 156.9 13.164ZM180.481 8.2H188.876V52H196.906V8.2H205.301V0.899997H180.481V8.2ZM233.014 0.899997H221.261L213.085 52H220.458L221.845 42.729H231.7L233.087 52H241.19L233.014 0.899997ZM226.736 9.952L230.605 35.794H222.867L226.736 9.952ZM254.2 0.899997H242.374V52H250.404V32.801H254.2C262.23 32.801 266.172 28.348 266.172 20.172V13.529C266.172 5.353 262.23 0.899997 254.2 0.899997ZM254.2 8.2C256.755 8.2 258.142 9.368 258.142 13.018V20.683C258.142 24.333 256.755 25.501 254.2 25.501H250.404V8.2H254.2ZM279.163 0.899997H267.337V52H275.367V32.801H279.163C287.193 32.801 291.135 28.348 291.135 20.172V13.529C291.135 5.353 287.193 0.899997 279.163 0.899997ZM279.163 8.2C281.718 8.2 283.105 9.368 283.105 13.018V20.683C283.105 24.333 281.718 25.501 279.163 25.501H275.367V8.2H279.163Z" fill="#F79E89"/>
</svg>
